<svg width="30" height="40" viewBox="0 0 30 40" fill="none" xmlns="http://www.w3.org/2000/svg">
<g clip-path="url(#clip0_882_41456)">
<path d="M6.25 25V40.0001L15 35.5001L23.75 40.0001V25" fill="url(#paint0_linear_882_41456)"/>
<path d="M11.9958 25.0865L12 37.0429L15 35.4999L17.9958 37.0438L18 25L11.9958 25.0865Z" fill="#F7801E"/>
<path d="M15 30C23.2842 30 30 23.2842 30 15C30 6.71572 23.2842 0 15 0C6.71572 0 0 6.71572 0 15C0 23.2842 6.71572 30 15 30Z" fill="url(#paint1_linear_882_41456)"/>
<path fill-rule="evenodd" clip-rule="evenodd" d="M2.25 15C2.25 7.95836 7.95836 2.25 15 2.25C22.0415 2.25 27.75 7.95836 27.75 15C27.75 22.0415 22.0415 27.75 15 27.75C7.95836 27.75 2.25 22.0415 2.25 15ZM15 3C8.37258 3 3 8.37258 3 15C3 21.6273 8.37258 27 15 27C21.6273 27 27 21.6273 27 15C27 8.37258 21.6273 3 15 3Z" fill="white"/>
<path d="M16.0687 10.2727H14.3343L12.1738 11.6406V13.277L14.1724 12.0241H14.2235V19H16.0687V10.2727Z" fill="white"/>
</g>
<defs>
<linearGradient id="paint0_linear_882_41456" x1="35.9998" y1="40.0001" x2="35.9998" y2="22.0001" gradientUnits="userSpaceOnUse">
<stop stop-color="#FCEE21"/>
<stop offset="1" stop-color="#F7801E"/>
</linearGradient>
<linearGradient id="paint1_linear_882_41456" x1="45.0302" y1="30.0201" x2="45.0302" y2="0" gradientUnits="userSpaceOnUse">
<stop stop-color="#FCEE21"/>
<stop offset="1" stop-color="#F7801E"/>
</linearGradient>
<clipPath id="clip0_882_41456">
<rect width="30" height="40" fill="white"/>
</clipPath>
</defs>
</svg>
