<svg width="30" height="40" viewBox="0 0 30 40" fill="none" xmlns="http://www.w3.org/2000/svg">
<g clip-path="url(#clip0_7003_164336)">
<path d="M6.25 25V40.0001L15 35.5001L23.75 40.0001V25" fill="url(#paint0_linear_7003_164336)"/>
<path d="M11.9958 25.0867L12 37.0431L15 35.5001L17.9958 37.044L18 25.0002L11.9958 25.0867Z" fill="#B56631"/>
<path d="M15 30C23.2842 30 30 23.2842 30 15C30 6.71572 23.2842 0 15 0C6.71572 0 0 6.71572 0 15C0 23.2842 6.71572 30 15 30Z" fill="url(#paint1_linear_7003_164336)"/>
<path fill-rule="evenodd" clip-rule="evenodd" d="M2.25 15C2.25 7.95836 7.95836 2.25 15 2.25C22.0415 2.25 27.75 7.95836 27.75 15C27.75 22.0415 22.0415 27.75 15 27.75C7.95836 27.75 2.25 22.0415 2.25 15ZM15 3C8.37258 3 3 8.37258 3 15C3 21.6273 8.37258 27 15 27C21.6273 27 27 21.6273 27 15C27 8.37258 21.6273 3 15 3Z" fill="white"/>
<path d="M14.9782 19.1193C16.9384 19.1193 18.3404 18.0412 18.3361 16.5497C18.3404 15.4631 17.65 14.6875 16.3674 14.5256V14.4574C17.3432 14.2827 18.0165 13.5923 18.0123 12.6122C18.0165 11.2358 16.8105 10.1534 15.0037 10.1534C13.214 10.1534 11.8674 11.2017 11.8418 12.7102H13.6103C13.6316 12.0455 14.2409 11.6151 14.9952 11.6151C15.7409 11.6151 16.2395 12.0668 16.2353 12.723C16.2395 13.4091 15.6557 13.8736 14.8162 13.8736H14.0023V15.2287H14.8162C15.8049 15.2287 16.4228 15.723 16.4185 16.4261C16.4228 17.1207 15.8262 17.598 14.9824 17.598C14.1685 17.598 13.5591 17.1719 13.525 16.5327H11.6671C11.6969 18.0582 13.0605 19.1193 14.9782 19.1193Z" fill="white"/>
</g>
<defs>
<linearGradient id="paint0_linear_7003_164336" x1="35.9998" y1="40.0001" x2="35.9998" y2="22.0001" gradientUnits="userSpaceOnUse">
<stop stop-color="#FFB873"/>
<stop offset="1" stop-color="#B56631"/>
</linearGradient>
<linearGradient id="paint1_linear_7003_164336" x1="45.0302" y1="30.0201" x2="45.0302" y2="0" gradientUnits="userSpaceOnUse">
<stop stop-color="#FFB873"/>
<stop offset="1" stop-color="#B56631"/>
</linearGradient>
<clipPath id="clip0_7003_164336">
<rect width="30" height="40" fill="white"/>
</clipPath>
</defs>
</svg>
